<?xml version="1.0" encoding="UTF-8"?>
<svg version="1.1" xmlns="http://www.w3.org/2000/svg" width="512" height="512">
<path d="M0 0 C168.96 0 337.92 0 512 0 C512 168.96 512 337.92 512 512 C343.04 512 174.08 512 0 512 C0 343.04 0 174.08 0 0 Z " fill="#FEFEFE" transform="translate(0,0)"/>
<path d="M0 0 C8.95659334 6.55616631 15.05781598 15.57133554 17.45703125 26.45703125 C17.7096875 27.44832031 17.96234375 28.43960938 18.22265625 29.4609375 C19.01957381 35.31571087 19.10411914 39.20325738 15.58789062 44.01464844 C10.30693398 49.93882647 4.45890327 55.2742837 -1.54296875 60.45703125 C1.75703125 60.45703125 5.05703125 60.45703125 8.45703125 60.45703125 C4.09910088 74.9834658 -3.59127744 89.72891041 -15.54296875 99.45703125 C-17.7109375 99.09375 -17.7109375 99.09375 -19.54296875 98.45703125 C-20.5255923 84.44349318 -20.84876645 70.43771892 -21.10546875 56.39453125 C-21.14878395 54.15949928 -21.19240174 51.92447316 -21.23632812 49.68945312 C-21.34202245 44.27870808 -21.4440109 38.86790347 -21.54296875 33.45703125 C-21.57056023 34.60762527 -21.57056023 34.60762527 -21.59870911 35.78146362 C-21.77541814 43.04854269 -21.96537987 50.31510237 -22.16983509 57.58144951 C-22.2744638 61.31620351 -22.37415671 65.0509471 -22.4621582 68.78613281 C-22.54744487 72.39808293 -22.64623392 76.00944476 -22.75397301 79.62079239 C-22.79256264 80.99119772 -22.826475 82.36174388 -22.85538673 83.73238754 C-23.05085132 92.81213149 -23.50685589 101.35970415 -28.24609375 109.31640625 C-31.30745785 112.16951428 -34.54425422 113.89538482 -38.29296875 115.70703125 C-38.97101563 116.05765625 -39.6490625 116.40828125 -40.34765625 116.76953125 C-41.02570313 117.1046875 -41.70375 117.43984375 -42.40234375 117.78515625 C-43.00530273 118.08325195 -43.60826172 118.38134766 -44.22949219 118.68847656 C-47.62450864 119.81632711 -50.98725649 120.08113371 -54.54296875 120.45703125 C-54.55755127 119.46896484 -54.57213379 118.48089844 -54.5871582 117.46289062 C-54.6455321 113.76494812 -54.72275899 110.06758989 -54.80541992 106.37011719 C-54.83848673 104.77581327 -54.86657434 103.18139742 -54.8894043 101.58691406 C-54.92328947 99.28272198 -54.97561612 96.979539 -55.03125 94.67578125 C-55.03763992 93.97336304 -55.04402985 93.27094482 -55.0506134 92.54724121 C-55.24878348 85.73837738 -57.15989401 79.03828172 -61.75390625 73.82421875 C-65.00578103 71.3391616 -68.86286524 70.15018164 -72.703125 68.828125 C-76.77636128 66.86154187 -78.59836989 63.93553382 -80.98046875 60.20703125 C-83.01071388 57.9331567 -84.60107988 57.93538716 -87.54296875 57.45703125 C-86.16642877 60.69475769 -84.76340024 63.92034582 -83.35546875 67.14453125 C-82.96810547 68.05654297 -82.58074219 68.96855469 -82.18164062 69.90820312 C-79.92133484 75.04526173 -77.83027882 78.68852172 -73.54296875 82.45703125 C-70.27692792 87.3560925 -70.99478472 92.73155362 -71.54296875 98.45703125 C-73.11665527 103.88412315 -75.79088054 107.33065743 -80.54296875 110.45703125 C-84.29426235 112.33267805 -88.45819327 111.98332736 -92.54296875 111.45703125 C-98.73517629 108.97587037 -103.68179128 104.44955711 -106.51171875 98.37890625 C-110.45378702 87.35571534 -109.44794865 75.31079667 -105.54296875 64.45703125 C-104.95708984 62.74966797 -104.95708984 62.74966797 -104.359375 61.0078125 C-97.03378294 41.14777963 -83.41381159 21.03069398 -64.54296875 10.45703125 C-63.55296875 10.78703125 -62.56296875 11.11703125 -61.54296875 11.45703125 C-60.85546875 13.51953125 -60.85546875 13.51953125 -60.54296875 15.45703125 C-59.88296875 15.45703125 -59.22296875 15.45703125 -58.54296875 15.45703125 C-58.30513672 14.42642578 -58.30513672 14.42642578 -58.0625 13.375 C-57.82917969 12.47394531 -57.59585938 11.57289063 -57.35546875 10.64453125 C-57.02482422 9.30455078 -57.02482422 9.30455078 -56.6875 7.9375 C-53.86746855 1.82582776 -44.48090598 -0.33499931 -38.54296875 -2.54296875 C-25.29138315 -6.86897024 -12.27849992 -7.45008828 0 0 Z " fill="#409499" transform="translate(218.54296875,167.54296875)"/>
<path d="M0 0 C1.32091644 0.0001133 1.32091644 0.0001133 2.66851807 0.00022888 C3.61031921 0.00539017 4.55212036 0.01055145 5.52246094 0.01586914 C6.97891022 0.01799156 6.97891022 0.01799156 8.46478271 0.02015686 C11.56216529 0.02574876 14.65947525 0.0382998 17.75683594 0.05102539 C19.85839739 0.05604144 21.95995998 0.06060416 24.06152344 0.06469727 C29.20998886 0.07571554 34.35840009 0.09297465 39.50683594 0.11352539 C37.18798387 2.43237746 35.46461004 2.98192964 32.38183594 4.05102539 C29.02529889 5.22079383 25.72397945 6.43283055 22.44433594 7.80102539 C17.92777154 9.5287756 13.30134508 9.82860579 8.50683594 10.11352539 C9.49683594 11.43352539 10.48683594 12.75352539 11.50683594 14.11352539 C10.59804687 14.8231543 10.59804687 14.8231543 9.67089844 15.54711914 C6.92875761 17.71130105 4.21313259 19.90468245 1.50683594 22.11352539 C0.68054688 22.78770508 -0.14574219 23.46188477 -0.99707031 24.15649414 C-15.87522903 36.88532013 -26.55690361 53.74574642 -32.52050781 72.32055664 C-33.49316406 75.11352539 -33.49316406 75.11352539 -35.49316406 78.11352539 C-35.59533502 71.62155743 -35.66495004 65.12979997 -35.71289062 58.63720703 C-35.73289492 56.43270113 -35.76010729 54.22824753 -35.79492188 52.02392578 C-35.84393464 48.83881656 -35.86624533 45.65441423 -35.88378906 42.46899414 C-35.9044342 41.49770065 -35.92507935 40.52640717 -35.9463501 39.52568054 C-35.94982193 28.722092 -32.43975179 19.44061987 -25.05566406 11.48852539 C-17.9236851 4.87839854 -9.98595496 -0.02869527 0 0 Z " fill="#4495A0" transform="translate(141.4931640625,160.886474609375)"/>
<path d="M0 0 C1.48285242 0.95262034 2.96118201 1.91228405 4.4375 2.875 C5.26121094 3.40867188 6.08492188 3.94234375 6.93359375 4.4921875 C9 6 9 6 10 8 C8.02 7.34 6.04 6.68 4 6 C4.0314209 7.3597998 4.0314209 7.3597998 4.06347656 8.74707031 C4.13238724 12.16905245 4.18215062 15.59027836 4.21972656 19.01269531 C4.23961976 20.48286709 4.26674472 21.95296215 4.30175781 23.42285156 C4.55113408 34.17536925 3.98195036 43.89983168 -2.078125 53.18359375 C-9.87756348 61.27761534 -17.22387492 66.9866382 -28.83374023 67.22705078 C-30.65872204 67.22673764 -32.48372522 67.21564823 -34.30859375 67.1953125 C-35.75867577 67.19106766 -35.75867577 67.19106766 -37.23805237 67.18673706 C-40.30466452 67.17560407 -43.37097715 67.15051224 -46.4375 67.125 C-48.52538639 67.11496131 -50.61327738 67.10583701 -52.70117188 67.09765625 C-57.80089544 67.07568727 -62.90039705 67.04120507 -68 67 C-64.91207201 65.42475086 -61.77223116 64.0681863 -58.56884766 62.74267578 C-46.01026016 57.47559766 -35.8520527 50.41641772 -26 41 C-25.32453125 40.39929688 -24.6490625 39.79859375 -23.953125 39.1796875 C-12.38331511 28.48918316 -5.87809538 14.3340147 0 0 Z " fill="#41CD4B" transform="translate(235,229)"/>
<path d="M0 0 C1.67542976 0.28604898 3.34385343 0.61781233 5 1 C5.33 2.32 5.66 3.64 6 5 C6.61875 4.79375 7.2375 4.5875 7.875 4.375 C8.57625 4.25125 9.2775 4.1275 10 4 C13.00617269 7.00617269 12.59585316 9.82381598 13 14 C13.639375 13.814375 14.27875 13.62875 14.9375 13.4375 C15.618125 13.293125 16.29875 13.14875 17 13 C19.62835279 15.62835279 18.22999189 23.05388741 18.24023438 26.82568359 C18.24983664 28.96362782 18.28079347 31.10056726 18.3125 33.23828125 C18.37074748 40.71322888 18.10951699 47.11679734 15 54 C14.01 54.495 14.01 54.495 13 55 C12.79246094 54.34773438 12.58492187 53.69546875 12.37109375 53.0234375 C9.74363202 45.56980131 6.68684268 41.3547788 -0.41796875 37.78515625 C-1.99258496 37.08171085 -3.57937187 36.4045574 -5.1796875 35.76171875 C-7 35 -7 35 -8 34 C-8.08767112 31.92737924 -8.10695873 29.85179706 -8.09765625 27.77734375 C-8.09443359 26.51728516 -8.09121094 25.25722656 -8.08789062 23.95898438 C-8.07953403 22.61848891 -8.07106907 21.27799412 -8.0625 19.9375 C-8.0574866 18.59310058 -8.05292342 17.2486994 -8.04882812 15.90429688 C-8.03699488 12.60282059 -8.02050971 9.30143197 -8 6 C-6.35 5.67 -4.7 5.34 -3 5 C-3 11.6 -3 18.2 -3 25 C-2.34 25 -1.68 25 -1 25 C-1.00523682 24.27820557 -1.01047363 23.55641113 -1.01586914 22.81274414 C-1.03657358 19.56267151 -1.04963918 16.31261272 -1.0625 13.0625 C-1.07087891 11.92619141 -1.07925781 10.78988281 -1.08789062 9.61914062 C-1.09111328 8.53955078 -1.09433594 7.45996094 -1.09765625 6.34765625 C-1.10289307 5.34742432 -1.10812988 4.34719238 -1.11352539 3.31665039 C-1 1 -1 1 0 0 Z " fill="#F1F8F8" transform="translate(152,198)"/>
<path d="M0 0 C1.32 0 2.64 0 4 0 C4 9.57 4 19.14 4 29 C2.35 28.67 0.7 28.34 -1 28 C-1.61875 28.33 -2.2375 28.66 -2.875 29 C-6.14522275 30.53892835 -8.55230428 29.80035793 -12 29 C-15.15441888 27.17375749 -15.82861833 26.51414502 -17 23 C-17.34222737 17.69547577 -17.52076609 14.27521597 -14 10 C-11.22633781 7.82069399 -9.96776637 8.00277876 -6.375 8.3125 C-3 9 -3 9 -1 10 C-0.67 6.7 -0.34 3.4 0 0 Z " fill="#0B0B0B" transform="translate(207,323)"/>
<path d="M0 0 C1.32 0 2.64 0 4 0 C4 9.57 4 19.14 4 29 C3.01 29 2.02 29 1 29 C1 28.34 1 27.68 1 27 C0.154375 27.515625 -0.69125 28.03125 -1.5625 28.5625 C-5.68668132 30.28715764 -7.72260389 30.18816558 -12 29 C-14.70736436 27.29008567 -15.72843872 26.00196749 -16.56640625 22.91015625 C-17.16215767 19.14124462 -17.28545873 16.69111062 -15.8125 13.125 C-12.46331522 9.19836957 -12.46331522 9.19836957 -10 8 C-2.97254902 8.02745098 -2.97254902 8.02745098 -1 10 C-0.67 6.7 -0.34 3.4 0 0 Z " fill="#080808" transform="translate(369,323)"/>
<path d="M0 0 C2.99153667 2.82059171 3.14337276 3.62122762 3.5625 7.8125 C3.49343059 11.25969123 3.04770508 12.31052324 1.25 15.5 C-2.69157972 18.7980565 -5.73338934 19.46809141 -10.8125 19.0625 C-13.76728038 17.86801431 -15.18905368 16.86407384 -17.125 14.375 C-18.36540758 10.20271994 -18.93918023 6.14977612 -16.83203125 2.24609375 C-15.10964452 0.04673839 -13.40269579 -1.65192139 -10.875 -2.875 C-6.50717641 -3.00735829 -3.64039038 -2.50782449 0 0 Z " fill="#090A0A" transform="translate(258.8125,333.9375)"/>
<path d="M0 0 C1.6662553 0.0370279 3.33401319 0.04759962 5 0 C1.69409724 1.8134321 -1.63170738 2.83752747 -5.25 3.875 C-14.70090886 6.16693431 -14.70090886 6.16693431 -21.37109375 12.4765625 C-22.38287678 14.96225783 -23.25266886 17.42367422 -24 20 C-24.66 20 -25.32 20 -26 20 C-26.66 18.68 -27.32 17.36 -28 16 C-32.61098782 17.47964534 -35.89425706 20.12948465 -39.5 23.25 C-40.05558594 23.71535156 -40.61117187 24.18070313 -41.18359375 24.66015625 C-43.98999966 27.05715706 -46.43728743 29.45290097 -48.71875 32.359375 C-49.4715625 33.23078125 -50.224375 34.1021875 -51 35 C-51.99 35 -52.98 35 -54 35 C-56.17032476 36.43990623 -56.17032476 36.43990623 -58 38 C-53.30649899 26.93487472 -41.46645852 18.80260612 -32 12 C-32.99 10.35 -33.98 8.7 -35 7 C-34.04480469 6.91363281 -33.08960938 6.82726562 -32.10546875 6.73828125 C-24.43254759 5.90443438 -18.21827627 4.71821675 -11.26953125 1.12109375 C-7.02976212 -0.97325004 -4.57014923 -1.00320349 0 0 Z " fill="#EFFAF9" transform="translate(184,163)"/>
<path d="M0 0 C0.7528125 0.05285156 1.505625 0.10570312 2.28125 0.16015625 C5.62208876 1.33062617 6.70958288 2.91314675 8.5 5.9375 C8.78614917 8.69883953 8.88589883 11.01895612 8.75 13.75 C8.73195313 14.44287109 8.71390625 15.13574219 8.6953125 15.84960938 C8.64851064 17.54617664 8.57677624 19.24202476 8.5 20.9375 C7.71367187 20.751875 6.92734375 20.56625 6.1171875 20.375 C3.54090136 19.67098841 3.54090136 19.67098841 1.625 20.9375 C-1.67334175 22.48966082 -4.04350493 21.81733511 -7.5 20.9375 C-9.5 19.1875 -9.5 19.1875 -10.5 16.9375 C-10.42509796 13.86651621 -9.94344796 12.45189964 -7.9375 10.125 C-4.31072526 8.35810974 -1.52005459 8.67814164 2.5 8.9375 C3.16 9.2675 3.82 9.5975 4.5 9.9375 C3.87466625 7.41386012 3.87466625 7.41386012 2.5 4.9375 C-0.62672123 3.66991031 -2.10801052 3.80683684 -5.3125 4.875 C-6.034375 5.225625 -6.75625 5.57625 -7.5 5.9375 C-7.83 4.6175 -8.16 3.2975 -8.5 1.9375 C-5.48078922 0.17400643 -3.48037379 -0.32777493 0 0 Z " fill="#090909" transform="translate(324.5,331.0625)"/>
<path d="M0 0 C1.859375 0.08984375 1.859375 0.08984375 4 1 C5.81454588 5.21713904 6.79235998 9.55760991 8 14 C9.65 9.38 11.3 4.76 13 0 C14.32 0 15.64 0 17 0 C18.65 4.62 20.3 9.24 22 14 C23.65 9.38 25.3 4.76 27 0 C28.32 0.33 29.64 0.66 31 1 C29.02 6.94 27.04 12.88 25 19 C23.35 19.33 21.7 19.66 20 20 C19.32968281 18.0429132 18.66385317 16.08428887 18 14.125 C17.62875 13.03445313 17.2575 11.94390625 16.875 10.8203125 C16 8 16 8 16 6 C15.34 6 14.68 6 14 6 C13.87882812 6.59167969 13.75765625 7.18335938 13.6328125 7.79296875 C12.73255357 12.03803585 11.79543379 16.02439661 10 20 C8.68 20 7.36 20 6 20 C4.99422987 17.23113877 3.99519853 14.46015896 3 11.6875 C2.71382813 10.90181641 2.42765625 10.11613281 2.1328125 9.30664062 C1.86210937 8.54931641 1.59140625 7.79199219 1.3125 7.01171875 C1.06113281 6.31522217 0.80976563 5.61872559 0.55078125 4.90112305 C0 3 0 3 0 0 Z " fill="#070707" transform="translate(281,332)"/>
<path d="M0 0 C6.93 0 13.86 0 21 0 C21 1.32 21 2.64 21 4 C15.39 4 9.78 4 4 4 C4 6.97 4 9.94 4 13 C9.28 13 14.56 13 20 13 C20 13.99 20 14.98 20 16 C14.72 16 9.44 16 4 16 C4 19.96 4 23.92 4 28 C2.68 28 1.36 28 0 28 C0 18.76 0 9.52 0 0 Z " fill="#1C1C1D" transform="translate(117,324)"/>
<path d="M0 0 C1.32 0 2.64 0 4 0 C4.33 5.28 4.66 10.56 5 16 C6.65 16.33 8.3 16.66 10 17 C10.99 16.34 11.98 15.68 13 15 C13.38411275 12.390379 13.60293197 9.9941926 13.6875 7.375 C13.72166016 6.66859375 13.75582031 5.9621875 13.79101562 5.234375 C13.87351308 3.49014312 13.93843335 1.74509605 14 0 C15.32 0 16.64 0 18 0 C18 6.6 18 13.2 18 20 C16.35 19.67 14.7 19.34 13 19 C12.01 19.66 11.02 20.32 10 21 C3.8790862 20.6720939 3.8790862 20.6720939 1.29956055 18.69995117 C-0.29417083 16.61519604 -0.35155957 15.58580754 -0.29296875 12.98828125 C-0.28330078 12.23095703 -0.27363281 11.47363281 -0.26367188 10.69335938 C-0.23853516 9.90767578 -0.21339844 9.12199219 -0.1875 8.3125 C-0.17396484 7.51521484 -0.16042969 6.71792969 -0.14648438 5.89648438 C-0.11117089 3.93070033 -0.05736447 1.96526418 0 0 Z " fill="#040504" transform="translate(142,332)"/>
<path d="M0 0 C6.6 0 13.2 0 20 0 C20 0.99 20 1.98 20 3 C14.39 3 8.78 3 3 3 C3 5.97 3 8.94 3 12 C8.28 12 13.56 12 19 12 C19 12.99 19 13.98 19 15 C13.72 15 8.44 15 3 15 C3 18.96 3 22.92 3 27 C2.01 27 1.02 27 0 27 C0 18.09 0 9.18 0 0 Z " fill="#030303" transform="translate(218,325)"/>
<path d="M0 0 C10.73342451 -0.85943791 10.73342451 -0.85943791 14.5625 2.0625 C17.41752881 5.50317574 18.15148264 7.67256148 19 12 C17.68 11.34 16.36 10.68 15 10 C15.99 11.32 16.98 12.64 18 14 C13.49793855 14.310487 10.87860856 14.40551164 6.75 12.5 C3.36858197 9.42598361 1.570251 6.26738801 0 2 C0 1.34 0 0.68 0 0 Z " fill="#EFF9F7" transform="translate(175,197)"/>
<path d="M0 0 C2.61284545 1.03138636 3.78159393 1.62706119 5.375 3.9375 C6.44786794 7.46263753 6.62218959 9.28317461 5.3125 12.75 C3.375 14.9375 3.375 14.9375 0.5 16 C-2.625 15.9375 -2.625 15.9375 -5.5 14.5 C-8.04807293 11.42732382 -8.36861985 9.7506891 -8.11328125 5.84765625 C-7.625 3.9375 -7.625 3.9375 -5.4375 1.375 C-2.625 -0.0625 -2.625 -0.0625 0 0 Z " fill="#F3F3F3" transform="translate(363.625,334.0625)"/>
<path d="M0 0 C3.90691489 1.54220325 3.90691489 1.54220325 5.375 3.9375 C6.1268797 10.70441729 6.1268797 10.70441729 3.8125 14.5 C1.375 15.9375 1.375 15.9375 -2.1875 16 C-5.625 14.9375 -5.625 14.9375 -7.625 12.75 C-8.87767688 9.22684626 -8.82982868 7.47668424 -7.625 3.9375 C-5.08472725 1.18553786 -3.80556992 -0.09060881 0 0 Z " fill="#F5F5F5" transform="translate(252.625,334.0625)"/>
<path d="M0 0 C4.48172915 1.43033909 4.48172915 1.43033909 5.9375 3.9375 C6.33052445 7.03256752 6.56658496 8.98198766 5.9375 11.9375 C3.8125 14.5 3.8125 14.5 0.9375 15.9375 C-2.1875 16 -2.1875 16 -5.0625 14.9375 C-7.54940973 12.12969869 -8.07660644 10.62871569 -8 6.875 C-6.53622716 2.28851177 -5.04313613 -0.10292115 0 0 Z " fill="#F4F4F4" transform="translate(201.0625,334.0625)"/>
<path d="M0 0 C0.91007813 0.00902344 1.82015625 0.01804688 2.7578125 0.02734375 C3.80582031 0.04474609 3.80582031 0.04474609 4.875 0.0625 C4.23092224 5.53716096 1.848223 9.4181475 -2.375 12.9375 C-6.14483977 14.47970718 -9.06847872 14.26876379 -13.125 14.0625 C-13.125 13.4025 -13.125 12.7425 -13.125 12.0625 C-11.49873596 10.68017557 -9.8324998 9.34312485 -8.125 8.0625 C-9.115 8.0625 -10.105 8.0625 -11.125 8.0625 C-11.455 7.0725 -11.785 6.0825 -12.125 5.0625 C-7.7215498 1.47021168 -5.685389 -0.0728896 0 0 Z " fill="#F0FBF6" transform="translate(214.125,191.9375)"/>
<path d="M0 0 C2.03120707 3.04681061 2.24659875 3.60118324 2.1953125 7.01171875 C2.18886719 7.76904297 2.18242187 8.52636719 2.17578125 9.30664062 C2.15902344 10.09232422 2.14226562 10.87800781 2.125 11.6875 C2.11597656 12.48478516 2.10695312 13.28207031 2.09765625 14.10351562 C2.07411585 16.069139 2.03824547 18.03460775 2 20 C1.01 20 0.02 20 -1 20 C-1.03738281 18.94039063 -1.07476562 17.88078125 -1.11328125 16.7890625 C-1.17893258 15.40100576 -1.24538021 14.01298651 -1.3125 12.625 C-1.33505859 11.92632812 -1.35761719 11.22765625 -1.38085938 10.5078125 C-1.46984296 8.22711059 -1.46984296 8.22711059 -2 5 C-4.76745084 2.69924738 -4.76745084 2.69924738 -7.625 3.25 C-8.40875 3.4975 -9.1925 3.745 -10 4 C-11.4807848 6.9615696 -11.35314037 9.83506295 -11.5625 13.125 C-11.64628906 14.40632813 -11.73007813 15.68765625 -11.81640625 17.0078125 C-11.90728516 18.48894531 -11.90728516 18.48894531 -12 20 C-12.99 20 -13.98 20 -15 20 C-15 13.4 -15 6.8 -15 0 C-13.68 0.33 -12.36 0.66 -11 1 C-10.401875 0.67 -9.80375 0.34 -9.1875 0 C-5.88335311 -1.51046715 -3.45756032 -0.83237563 0 0 Z " fill="#060706" transform="translate(182,332)"/>
<path d="M0 0 C0.33 0 0.66 0 1 0 C1 4.29 1 8.58 1 13 C2.36125 13.4125 3.7225 13.825 5.125 14.25 C12.49888547 16.73493006 18.21127242 20.71529262 21.89306641 27.69238281 C25.00862978 35.56514902 24.09178441 43.78484305 23.6875 52.0625 C23.62412296 53.61126635 23.56226124 55.16009549 23.50195312 56.70898438 C23.3521047 60.4736079 23.18174698 64.23678712 23 68 C27.455 67.01 27.455 67.01 32 66 C28.99382731 69.00617269 26.17618402 68.59585316 22 69 C21.98541748 68.01193359 21.97083496 67.02386719 21.95581055 66.00585938 C21.89743665 62.30791687 21.82020976 58.61055864 21.73754883 54.91308594 C21.70448202 53.31878202 21.67639441 51.72436617 21.65356445 50.12988281 C21.61967928 47.82569073 21.56735263 45.52250775 21.51171875 43.21875 C21.50532883 42.51633179 21.4989389 41.81391357 21.49235535 41.09020996 C21.29441826 34.28935132 19.38897435 27.5790925 14.79296875 22.375 C11.49927404 19.84911647 7.61561268 18.58122605 3.7421875 17.17578125 C1.13243755 16.0567859 -0.28943492 15.2355316 -2 13 C-2 12.34 -2 11.68 -2 11 C-1.34 11 -0.68 11 0 11 C0 7.37 0 3.74 0 0 Z " fill="#296598" transform="translate(142,219)"/>
<path d="M0 0 C0.66 0 1.32 0 2 0 C6.93913043 7.7173913 6.93913043 7.7173913 6 13 C4 15.375 4 15.375 2 17 C1.67 16.01 1.34 15.02 1 14 C0.34 15.32 -0.32 16.64 -1 18 C-3.63574873 15.36425127 -4.01066083 13.90557548 -4.4375 10.125 C-4.28593232 5.8651506 -2.77147979 3.26056446 0 0 Z " fill="#EEFAF5" transform="translate(196,177)"/>
<path d="M0 0 C0.33 0 0.66 0 1 0 C1 10.89 1 21.78 1 33 C1.99 33 2.98 33 4 33 C4.33 32.34 4.66 31.68 5 31 C4.31063929 34.91121498 3.21749819 38.55508596 1.9375 42.3125 C1.39416016 43.91544922 1.39416016 43.91544922 0.83984375 45.55078125 C0.56269531 46.35902344 0.28554687 47.16726562 0 48 C-0.33 48 -0.66 48 -1 48 C-1.02526945 41.3247966 -1.04283268 34.64960543 -1.05493164 27.97436523 C-1.05997325 25.70157409 -1.06680637 23.4287862 -1.07543945 21.15600586 C-1.08751261 17.89696449 -1.09322987 14.63796583 -1.09765625 11.37890625 C-1.10281754 10.35599991 -1.10797882 9.33309357 -1.11329651 8.27919006 C-1.11337204 7.33829025 -1.11344757 6.39739044 -1.11352539 5.42797852 C-1.115746 4.59524918 -1.11796661 3.76251984 -1.12025452 2.90455627 C-1 1 -1 1 0 0 Z " fill="#5F89B3" transform="translate(107,191)"/>
<path d="M0 0 C0.7528125 0.05285156 1.505625 0.10570312 2.28125 0.16015625 C5.62208876 1.33062617 6.70958288 2.91314675 8.5 5.9375 C8.78614917 8.69883953 8.88589883 11.01895612 8.75 13.75 C8.73195313 14.44287109 8.71390625 15.13574219 8.6953125 15.84960938 C8.64851064 17.54617664 8.57677624 19.24202476 8.5 20.9375 C7.18 20.9375 5.86 20.9375 4.5 20.9375 C4.52320313 20.36902344 4.54640625 19.80054688 4.5703125 19.21484375 C4.69191688 14.01191352 4.17723492 9.86437757 2.5 4.9375 C-1.55431692 3.77912374 -3.71812119 4.10058743 -7.5 5.9375 C-7.83 4.6175 -8.16 3.2975 -8.5 1.9375 C-5.48078922 0.17400643 -3.48037379 -0.32777493 0 0 Z " fill="#1A1B1B" transform="translate(324.5,331.0625)"/>
<path d="M0 0 C1.32 0 2.64 0 4 0 C4 9.57 4 19.14 4 29 C2.68 29 1.36 29 0 29 C0.66 27.02 1.32 25.04 2 23 C1.34 23 0.68 23 0 23 C-0.19573608 21.56359829 -0.38127816 20.12580496 -0.5625 18.6875 C-0.71912109 17.48673828 -0.71912109 17.48673828 -0.87890625 16.26171875 C-1 14 -1 14 0 11 C0.0685495 9.10529184 0.08480372 7.2083166 0.0625 5.3125 C0.05347656 4.31863281 0.04445312 3.32476562 0.03515625 2.30078125 C0.02355469 1.54152344 0.01195312 0.78226562 0 0 Z " fill="#030404" transform="translate(207,323)"/>
<path d="M0 0 C0 1.32 0 2.64 0 4 C-0.97195313 4.34675781 -1.94390625 4.69351562 -2.9453125 5.05078125 C-6.34396873 6.72207527 -6.34396873 6.72207527 -6.8046875 10.35546875 C-6.82789063 11.62003906 -6.85109375 12.88460938 -6.875 14.1875 C-6.93300781 16.09595703 -6.93300781 16.09595703 -6.9921875 18.04296875 C-6.99476563 19.01878906 -6.99734375 19.99460937 -7 21 C-8.32 21 -9.64 21 -11 21 C-11 14.4 -11 7.8 -11 1 C-9.68 1 -8.36 1 -7 1 C-6.67 1.66 -6.34 2.32 -6 3 C-5.071875 2.2575 -5.071875 2.2575 -4.125 1.5 C-2 0 -2 0 0 0 Z " fill="#030303" transform="translate(278,331)"/>
<path d="M0 0 C5.94 0 11.88 0 18 0 C18 0.33 18 0.66 18 1 C12.72 1 7.44 1 2 1 C2 4.3 2 7.6 2 11 C7.28 11 12.56 11 18 11 C18 11.99 18 12.98 18 14 C12.39 14 6.78 14 1 14 C1 17.63 1 21.26 1 25 C0.67 25 0.34 25 0 25 C0 16.75 0 8.5 0 0 Z " fill="#070707" transform="translate(119,326)"/>
<path d="M0 0 C0 1.32 0 2.64 0 4 C-2.4375 5.6875 -2.4375 5.6875 -5 7 C-6.87824891 8.87824891 -6.39102397 12.03935276 -6.5625 14.5625 C-6.68818359 16.35880859 -6.68818359 16.35880859 -6.81640625 18.19140625 C-6.87699219 19.11824219 -6.93757813 20.04507812 -7 21 C-7.99 21 -8.98 21 -10 21 C-10 14.4 -10 7.8 -10 1 C-9.01 1 -8.02 1 -7 1 C-6.67 1.66 -6.34 2.32 -6 3 C-5.071875 2.2575 -5.071875 2.2575 -4.125 1.5 C-2 0 -2 0 0 0 Z " fill="#040404" transform="translate(349,331)"/>
<path d="M0 0 C1.32 0 2.64 0 4 0 C4.06058594 1.12019531 4.12117187 2.24039062 4.18359375 3.39453125 C4.26801424 4.86719984 4.35266149 6.33985544 4.4375 7.8125 C4.47681641 8.55048828 4.51613281 9.28847656 4.55664062 10.04882812 C4.74381035 13.23071342 4.98720793 15.96162378 6 19 C4.35 19 2.7 19 1 19 C-0.65497356 15.69005287 -0.10084335 12.00877 -0.0625 8.375 C-0.05798828 7.57320313 -0.05347656 6.77140625 -0.04882812 5.9453125 C-0.03703168 3.96350994 -0.01909605 1.98174567 0 0 Z " fill="#191A1A" transform="translate(142,332)"/>
<path d="M0 0 C1.6662553 0.0370279 3.33401319 0.04759962 5 0 C1.69422322 1.80533926 -1.64256403 2.8732209 -5.25 3.9375 C-10.25632011 5.44447573 -15.13397099 7.09175333 -20 9 C-20 8.34 -20 7.68 -20 7 C-21.32 6.67 -22.64 6.34 -24 6 C-5.39956314 -1.64986652 -5.39956314 -1.64986652 0 0 Z " fill="#E3F7F1" transform="translate(184,163)"/>
<path d="M0 0 C0.99 0.33 1.98 0.66 3 1 C2.43228021 4.9740385 1.69737652 7.96545142 -1 11 C-5.4161902 12.39817605 -8.85533112 12.53729356 -13.0625 10.5625 C-13.701875 10.046875 -14.34125 9.53125 -15 9 C-14.67 7.35 -14.34 5.7 -14 4 C-12.9171875 4.99 -12.9171875 4.99 -11.8125 6 C-9.20589787 8.16247913 -9.20589787 8.16247913 -6.375 8.4375 C-3.51028758 7.90978982 -2.6474987 7.38887311 -1 5 C-0.27802838 2.39388923 -0.27802838 2.39388923 0 0 Z " fill="#0B0B0B" transform="translate(258,341)"/>
<path d="M0 0 C3.3 0 6.6 0 10 0 C9.25 4.75 9.25 4.75 7 7 C4 7.25 4 7.25 1 7 C0.34 6.34 -0.32 5.68 -1 5 C-0.625 2.375 -0.625 2.375 0 0 Z " fill="#F4F4F3" transform="translate(319,343)"/>
<path d="M0 0 C0.99 0 1.98 0 3 0 C3 9.57 3 19.14 3 29 C2.01 29 1.02 29 0 29 C0.495 27.515 0.495 27.515 1 26 C1.06937062 23.77181559 1.08457084 21.54165476 1.0625 19.3125 C1.05347656 18.13300781 1.04445313 16.95351563 1.03515625 15.73828125 C1.02355469 14.83464844 1.01195312 13.93101562 1 13 C0.67 13 0.34 13 0 13 C0 8.71 0 4.42 0 0 Z M-1 13 C1.1519437 16.22791555 1.20086443 17.28400809 1 21 C-0.76462683 17.91190305 -1 16.76687864 -1 13 Z " fill="#010202" transform="translate(370,323)"/>
<path d="M0 0 C-0.33 0.99 -0.66 1.98 -1 3 C8.9 3 18.8 3 29 3 C29 3.33 29 3.66 29 4 C14.81 4 0.62 4 -14 4 C-3.6 -1.2 -3.6 -1.2 0 0 Z " fill="#1AA64A" transform="translate(181,292)"/>
<path d="M0 0 C6.30693069 -0.48514851 6.30693069 -0.48514851 9.5 1.75 C11 4 11 4 10.75 6.25 C10.5025 6.8275 10.255 7.405 10 8 C7.8125 8.375 7.8125 8.375 5 8 C2.91167347 6.17130326 1.61663209 4.30947441 0 2 C0 1.34 0 0.68 0 0 Z " fill="#E7F4F4" transform="translate(183,230)"/>
<path d="M0 0 C0.7734375 0.4640625 0.7734375 0.4640625 1.5625 0.9375 C1.2325 1.9275 0.9025 2.9175 0.5625 3.9375 C-0.159375 3.586875 -0.88125 3.23625 -1.625 2.875 C-4.81018865 1.81327045 -6.27276262 1.93810925 -9.4375 2.9375 C-10.4275 3.5975 -11.4175 4.2575 -12.4375 4.9375 C-13.0975 4.6075 -13.7575 4.2775 -14.4375 3.9375 C-14.10010373 1.407028 -13.8313922 0.2556437 -11.8125 -1.375 C-7.67185218 -2.57360858 -3.89279021 -1.69685727 0 0 Z " fill="#0E0F0F" transform="translate(206.4375,333.0625)"/>
<path d="M0 0 C0.33 0 0.66 0 1 0 C1.05386629 2.12472576 1.09273071 4.24983652 1.125 6.375 C1.14820313 7.55835938 1.17140625 8.74171875 1.1953125 9.9609375 C1 13 1 13 -1 15 C-1 14.34 -1 13.68 -1 13 C-5.77762638 11.98312954 -5.77762638 11.98312954 -10.4375 12.9375 C-10.953125 13.288125 -11.46875 13.63875 -12 14 C-11.34 12.02 -10.68 10.04 -10 8 C-2.125 8.875 -2.125 8.875 -1 10 C-0.67 6.7 -0.34 3.4 0 0 Z " fill="#222223" transform="translate(369,323)"/>
<path d="M0 0 C-0.125 1.8125 -0.125 1.8125 -1 4 C-4.74758745 6.38482838 -7.56348311 7.39145737 -12 7 C-12.33 5.68 -12.66 4.36 -13 3 C-12.0925 3.061875 -11.185 3.12375 -10.25 3.1875 C-5.83038734 2.93252235 -4.29827572 0 0 0 Z " fill="#0D0E0E" transform="translate(209,346)"/>
<path d="M0 0 C0.33 0 0.66 0 1 0 C1 4.29 1 8.58 1 13 C3.31 13.66 5.62 14.32 8 15 C8 15.66 8 16.32 8 17 C1.52443609 16.38909774 1.52443609 16.38909774 -0.9375 14.5625 C-2 13 -2 13 -2 11 C-1.34 11 -0.68 11 0 11 C0 7.37 0 3.74 0 0 Z " fill="#37769C" transform="translate(142,219)"/>
<path d="M0 0 C1 3 1 3 1 7 C0.34 7 -0.32 7 -1 7 C-1 13.93 -1 20.86 -1 28 C-1.33 28 -1.66 28 -2 28 C-2 19.42 -2 10.84 -2 2 C-1.34 2 -0.68 2 0 2 C0 1.34 0 0.68 0 0 Z " fill="#3F9B84" transform="translate(200,199)"/>
<path d="M0 0 C1.32 0.33 2.64 0.66 4 1 C2.68 3.97 1.36 6.94 0 10 C-0.99 9.67 -1.98 9.34 -3 9 C-2.01 6.03 -1.02 3.06 0 0 Z " fill="#0C0C0D" transform="translate(308,332)"/>
<path d="M0 0 C0.33 0 0.66 0 1 0 C1 5.94 1 11.88 1 18 C0.67 18 0.34 18 0 18 C-0.061875 16.6696875 -0.061875 16.6696875 -0.125 15.3125 C-1.32128554 10.78370473 -3.26271887 9.70356508 -7 7 C-4 7 -4 7 -2 8 C-1.34 5.36 -0.68 2.72 0 0 Z " fill="#429583" transform="translate(195,199)"/>
<path d="M0 0 C0.99 0 1.98 0 3 0 C3.36923077 7.50769231 3.36923077 7.50769231 1.5 10 C1.005 10.33 0.51 10.66 0 11 C-1.62651522 7.74696956 -1.11453156 4.60774398 -1 1 C-0.67 0.67 -0.34 0.34 0 0 Z " fill="#040404" transform="translate(242,337)"/>
<path d="M0 0 C0.99 0.33 1.98 0.66 3 1 C2.34 1 1.68 1 1 1 C0.67 2.65 0.34 4.3 0 6 C-0.66 5.67 -1.32 5.34 -2 5 C-2.76173392 9.3164922 -3.16063604 12.74433453 -2 17 C-2.66 16.67 -3.32 16.34 -4 16 C-5.16810828 11.74913978 -5.49524411 8.10840348 -3.6875 4.0625 C-2 2 -2 2 0 0 Z " fill="#010101" transform="translate(357,332)"/>
<path d="M0 0 C5.66710699 1.31793186 7.66437233 3.48709197 11 8 C7.03851186 8 5.96494461 6.53105028 3 4 C1.67098936 2.99426222 0.33926199 1.99204592 -1 1 C-0.67 0.67 -0.34 0.34 0 0 Z " fill="#1F658D" transform="translate(150,235)"/>
<path d="M0 0 C0.99 0.33 1.98 0.66 3 1 C2.47731534 3.76276177 1.89130413 6.3260876 1 9 C-0.65 9.33 -2.3 9.66 -4 10 C-3.71125 9.46375 -3.4225 8.9275 -3.125 8.375 C-1.83288192 5.64719516 -0.91441408 2.87387282 0 0 Z " fill="#131414" transform="translate(258,341)"/>
<path d="M0 0 C0.99 0.33 1.98 0.66 3 1 C2.67 3.31 2.34 5.62 2 8 C1.01 8.33 0.02 8.66 -1 9 C-1.125 2.25 -1.125 2.25 0 0 Z " fill="#030303" transform="translate(191,336)"/>
<path d="M0 0 C0.66 0.33 1.32 0.66 2 1 C-0.75 5.875 -0.75 5.875 -3 7 C-3.66 6.67 -4.32 6.34 -5 6 C-4.75 4.125 -4.75 4.125 -4 2 C-2.0625 0.6875 -2.0625 0.6875 0 0 Z " fill="#141516" transform="translate(197,331)"/>
<path d="M0 0 C0.99 0.99 1.98 1.98 3 3 C2.01 3.495 2.01 3.495 1 4 C-0.05352843 6.30965848 -1.05719096 8.6429774 -2 11 C-2.66 11 -3.32 11 -4 11 C-3.52269162 9.5410574 -3.04308958 8.08286504 -2.5625 6.625 C-2.29566406 5.81289062 -2.02882812 5.00078125 -1.75390625 4.1640625 C-1 2 -1 2 0 0 Z " fill="#71DF5D" transform="translate(235,229)"/>
<path d="M0 0 C0.33 0.66 0.66 1.32 1 2 C2.65 1.67 4.3 1.34 6 1 C3.6875 3.5 3.6875 3.5 1 6 C0.01 6 -0.98 6 -2 6 C-1.34 4.02 -0.68 2.04 0 0 Z " fill="#9CCAB8" transform="translate(202,198)"/>
<path d="M0 0 C-0.33 0.99 -0.66 1.98 -1 3 C-3.31 3 -5.62 3 -8 3 C-8 2.34 -8 1.68 -8 1 C-3.375 -1.125 -3.375 -1.125 0 0 Z " fill="#23A957" transform="translate(181,292)"/>
<path d="M0 0 C0 1.32 0 2.64 0 4 C-3.465 5.485 -3.465 5.485 -7 7 C-3.86206897 0 -3.86206897 0 0 0 Z " fill="#060607" transform="translate(278,331)"/>
<path d="M0 0 C0.99 0 1.98 0 3 0 C3 0.99 3 1.98 3 3 C3.99 3.33 4.98 3.66 6 4 C5.67 4.66 5.34 5.32 5 6 C4.01 5.34 3.02 4.68 2 4 C-0.62531524 3.83286431 -0.62531524 3.83286431 -3 4 C-1.6875 2 -1.6875 2 0 0 Z " fill="#030303" transform="translate(175,331)"/>
<path d="M0 0 C1.9451 2.91765 2.45276317 4.62537285 3 8 C1.35 8 -0.3 8 -2 8 C-1.34 5.36 -0.68 2.72 0 0 Z " fill="#76B69B" transform="translate(196,188)"/>
</svg>
